# xmcd CD database file
#
# Track frame offsets:
#	150
#	21362
#	42727
#	66145
#	94807
#	118517
#	143132
#	166565
#	196017
#	214102
#	238202
#	265812
#	289555
#	308157
#
# Disc length: 4392 seconds
#
# Revision: 0
# Processed by: cddbd v1.5.1PL0 Copyright (c) Steve Scherf et al.
# Submitted via: CDex 1.51
#
DISCID=c611260e
DTITLE=Various Artist - June 2005 - Cool Summer Vol. 4
DYEAR=2005
DGENRE=Jazz
TTITLE0=The Crossing - Acoustic Alchemy
TTITLE1=Motivation - Babatunde Lea
TTITLE2=Trouble - Lizz Wright
TTITLE3=Ocean Waves - Jack DeJohnette, Foday Musa Suso
TTITLE4=Riders On The Storm - O'2L
TTITLE5=Six and Four - Joe Lovano
TTITLE6=Metro Cafe - Jeff Golub
TTITLE7=Revolutions - Vijay Lyer
TTITLE8=I Can't Stand Losing You - Curtis Stigers
TTITLE9=Easy Morning - Bradley Leighton
TTITLE10=The Other - Michael Galasso
TTITLE11=Reflections - Billy Bang
TTITLE12=Coolness - Walter Beasley
TTITLE13=The Homewrecker Hump - Doug Wamble
EXTD=YEAR: 2005
EXTT0=
EXTT1=
EXTT2=
EXTT3=
EXTT4=
EXTT5=
EXTT6=
EXTT7=
EXTT8=
EXTT9=
EXTT10=
EXTT11=
EXTT12=
EXTT13=
PLAYORDER=
